<svg width="191" height="61" viewBox="0 0 191 61" fill="none" xmlns="http://www.w3.org/2000/svg">
<mask id="mask0_2129_402" style="mask-type:luminance" maskUnits="userSpaceOnUse" x="0" y="0" width="191" height="61">
<path d="M0.805908 0.160028H190.9V60.404H0.805908V0.160028Z" fill="white"/>
</mask>
<g mask="url(#mask0_2129_402)">
<path fill-rule="evenodd" clip-rule="evenodd" d="M56.4385 0.160028H94.5745L87.1265 60.404H49.2905L56.4385 0.160028Z" fill="#2E3192"/>
<path fill-rule="evenodd" clip-rule="evenodd" d="M92.6759 12.7294H68.6239L67.5559 21.8747H89.4439L88.4172 30.7267H66.5292L64.5745 47.6214H50.6372L55.6985 4.00938H93.6945L92.6759 12.7294Z" fill="white"/>
<path fill-rule="evenodd" clip-rule="evenodd" d="M45.2225 58.12L46.2798 51.7014H49.0945L48.9412 52.6014H46.9225L46.6345 54.4267H48.6412L48.5065 55.3107H46.4852L46.1732 57.196H48.1812L48.0292 58.12H45.2225ZM40.0252 58.12L41.0692 51.7014H42.5119C43.3052 51.7014 43.9278 51.9507 44.3705 52.432C44.8105 52.9227 45.0252 53.6094 45.0252 54.4894C45.0252 55.584 44.7438 56.464 44.1705 57.1227C43.6052 57.7894 42.8505 58.12 41.9105 58.12H40.0252ZM42.5119 52.5574H41.7198L40.9518 57.2534H41.9105C42.6025 57.2534 43.1572 57.0134 43.5772 56.5214C44.0012 56.0294 44.2145 55.3774 44.2145 54.568C44.2145 53.9147 44.0639 53.4254 43.7719 53.0734C43.4852 52.7294 43.0639 52.5574 42.5119 52.5574ZM38.5798 55.3774L38.1759 52.6827L36.9572 55.3774H38.5798ZM34.8398 58.12L37.8318 51.7014H38.7465L39.8532 58.12H39.0279L38.7172 56.2787H36.5585L35.7038 58.12H34.8398ZM30.3452 58.12L31.3945 51.7014H32.8292C33.6292 51.7014 34.2505 51.9507 34.6918 52.432C35.1318 52.9227 35.3505 53.6094 35.3505 54.4894C35.3505 55.584 35.0665 56.464 34.4959 57.1227C33.9305 57.7894 33.1678 58.12 32.2278 58.12H30.3452ZM32.8292 52.5574H32.0398L31.2745 57.2534H32.2278C32.9225 57.2534 33.4825 57.0134 33.9078 56.5214C34.3292 56.0294 34.5345 55.3774 34.5345 54.568C34.5345 53.9147 34.3945 53.4254 34.0998 53.0734C33.8052 52.7294 33.3892 52.5574 32.8292 52.5574ZM28.6078 58.12L29.6625 51.7014H30.4652L29.4132 58.12H28.6078ZM24.9492 56.0627H25.7905C25.7905 56.0867 25.7905 56.12 25.7772 56.1534V56.2374C25.7772 56.6147 25.8425 56.8854 25.9905 57.0707C26.1292 57.2534 26.3398 57.352 26.6158 57.352C26.8732 57.352 27.0892 57.2534 27.2585 57.0547C27.4252 56.8494 27.5172 56.6147 27.5172 56.3054C27.5172 56.0987 27.4705 55.9267 27.3839 55.7787C27.3079 55.6307 27.1212 55.4587 26.8398 55.2534C26.7905 55.232 26.7252 55.172 26.6345 55.1174C26.2772 54.888 26.0225 54.6694 25.8558 54.4774C25.7358 54.3254 25.6385 54.1667 25.5825 53.9814C25.5252 53.8027 25.4959 53.5934 25.4959 53.3774C25.4959 52.8654 25.6492 52.432 25.9598 52.092C26.2665 51.7454 26.6572 51.576 27.1372 51.576C27.5998 51.576 27.9518 51.724 28.2092 52.024C28.4745 52.3174 28.6078 52.716 28.6078 53.232V53.3414L28.6052 53.4254H27.7932V53.3574L27.7958 53.3C27.7958 53.0267 27.7385 52.82 27.6025 52.6587C27.4799 52.5 27.3078 52.4227 27.0892 52.4227C26.8918 52.4227 26.7065 52.5107 26.5558 52.6827C26.4132 52.852 26.3398 53.06 26.3398 53.3C26.3398 53.6307 26.6492 54.0187 27.2719 54.44C27.3945 54.524 27.5012 54.6014 27.5692 54.648C27.8159 54.8174 28.0225 55.06 28.1599 55.344C28.3079 55.62 28.3758 55.9267 28.3758 56.256C28.3758 56.8147 28.2092 57.2947 27.8652 57.688C27.5279 58.06 27.1078 58.2454 26.6078 58.2454C26.0692 58.2454 25.6598 58.0734 25.3758 57.7294C25.0892 57.3774 24.9492 56.8747 24.9492 56.224V56.0627ZM20.2958 58.12L21.3532 51.7014H22.7385C23.3758 51.7014 23.8732 51.872 24.2225 52.2014C24.5692 52.536 24.7492 53.0027 24.7492 53.6094C24.7492 54.188 24.5865 54.6827 24.2692 55.06C23.9439 55.432 23.5039 55.6534 22.9545 55.708L24.0612 58.12H23.1759L21.7118 54.9667H21.8505C22.6412 54.956 23.1292 54.888 23.3398 54.7374C23.5092 54.6227 23.6518 54.464 23.7385 54.268C23.8372 54.0867 23.8892 53.8694 23.8892 53.6507C23.8892 53.3107 23.7905 53.0467 23.5972 52.8654C23.4025 52.6694 23.1265 52.5814 22.7638 52.5814C22.6678 52.5814 22.5559 52.5814 22.4199 52.592C22.2932 52.592 22.1545 52.6014 22.0038 52.612L21.0892 58.12H20.2958ZM16.4959 58.12L17.5532 51.7014H20.3705L20.2172 52.6014H18.1985L17.9052 54.4267H19.9199L19.7798 55.3107H17.7665L17.4492 57.196H19.4598L19.3158 58.12H16.4959ZM12.4305 51.7014H13.2305L13.9385 57.0707L16.3265 51.7014H17.1985L14.2825 58.12H13.3132L12.4305 51.7014ZM10.3105 58.12L11.3625 51.7014H12.1625L11.1025 58.12H10.3105ZM5.03718 58.12L6.11051 51.7014H7.20918L8.74385 56.8414L9.59984 51.7014H10.3972L9.33984 58.12H8.29318L6.71718 52.82L5.83984 58.12H5.03718ZM1.52918 51.7014H2.32384L1.68651 55.62C1.65451 55.7787 1.63452 55.9267 1.62385 56.0627C1.60518 56.2027 1.60518 56.3254 1.60518 56.4267C1.60518 56.7107 1.67318 56.932 1.82384 57.092C1.97051 57.2534 2.17051 57.3227 2.43051 57.3227C2.77984 57.3227 3.03985 57.196 3.20651 56.9534C3.38385 56.7027 3.53185 56.224 3.65185 55.4947L4.27452 51.7014H5.07451L4.43852 55.5707C4.42518 55.604 4.42252 55.6747 4.40518 55.756C4.28518 56.4974 4.14118 57.0214 3.96518 57.352C3.81585 57.6534 3.60518 57.868 3.33984 58.016C3.07184 58.1614 2.75318 58.2454 2.37318 58.2454C1.89451 58.2454 1.50918 58.096 1.22518 57.8C0.946512 57.5027 0.805176 57.092 0.805176 56.5867C0.805176 56.4507 0.807851 56.292 0.826518 56.12C0.845184 55.9507 0.870511 55.756 0.894511 55.5707L1.52918 51.7014Z" fill="#2E3192"/>
<path fill-rule="evenodd" clip-rule="evenodd" d="M83.7439 58.12L84.8012 51.7014H85.6079L84.6985 57.196H86.5319L86.3785 58.12H83.7439ZM81.0892 55.3774L80.6892 52.6827L79.4719 55.3774H81.0892ZM77.3612 58.12L80.3505 51.7014H81.2639L82.3679 58.12H81.5425L81.2225 56.2787H79.0639L78.2252 58.12H77.3612ZM72.4252 58.12L73.4879 51.7014H74.8612C75.5145 51.7014 76.0065 51.872 76.3532 52.2014C76.7039 52.536 76.8785 53.0027 76.8785 53.6094C76.8785 54.188 76.7225 54.6827 76.3999 55.06C76.0719 55.432 75.6385 55.6534 75.0799 55.708L76.2012 58.12H75.3105L73.8452 54.9667H73.9825C74.7585 54.956 75.2559 54.888 75.4679 54.7374C75.6385 54.6227 75.7772 54.464 75.8759 54.268C75.9705 54.0867 76.0225 53.8694 76.0225 53.6507C76.0225 53.3107 75.9172 53.0467 75.7252 52.8654C75.5292 52.6694 75.2532 52.5814 74.9052 52.5814C74.8039 52.5814 74.6865 52.5814 74.5479 52.592C74.4279 52.592 74.2825 52.6014 74.1385 52.612L73.2252 58.12H72.4252ZM67.4385 58.12L68.4985 51.7014H71.3185L71.1572 52.6014H69.1385L68.8505 54.4267H70.8585L70.7225 55.3107H68.7039L68.3865 57.196H70.3972L70.2532 58.12H67.4385ZM61.0559 58.12L62.0972 51.7014H63.5399C64.3372 51.7014 64.9572 51.94 65.3972 52.432C65.8372 52.9227 66.0585 53.6094 66.0585 54.4894C66.0585 55.584 65.7692 56.464 65.2012 57.1227C64.6345 57.7894 63.8812 58.12 62.9332 58.12H61.0559ZM63.5399 52.5574H62.7465L61.9799 57.2534H62.9332C63.6292 57.2534 64.1865 57.0134 64.6132 56.5214C65.0279 56.0294 65.2465 55.3774 65.2465 54.568C65.2465 53.9147 65.0945 53.4254 64.8039 53.0734C64.5119 52.7294 64.0919 52.5574 63.5399 52.5574ZM56.0665 58.12L57.1292 51.7014H59.9465L59.7932 52.6014H57.7719L57.4825 54.4267H59.4879L59.3505 55.3107H57.3372L57.0225 57.196H59.0319L58.8812 58.12H56.0665ZM51.2039 58.12L52.2585 51.7014H55.0745L54.9225 52.6014H52.9052L52.6105 54.4267H54.6239L54.4879 55.3107H52.4705L52.0012 58.12H51.2039Z" fill="white"/>
<path fill-rule="evenodd" clip-rule="evenodd" d="M181.624 58.12L182.678 51.7014H185.506L185.35 52.6014H183.326L183.034 54.4267H185.045L184.908 55.3107H182.894L182.572 57.196H184.582L184.438 58.12H181.624ZM179.137 58.12L180.05 52.592H178.845L178.998 51.7014H182.141L182.001 52.592H180.848L179.933 58.12H179.137ZM173.868 58.12L174.922 51.7014H176.304C176.952 51.7014 177.444 51.872 177.793 52.2014C178.146 52.536 178.318 53.0027 178.318 53.6094C178.318 54.188 178.157 54.6827 177.837 55.06C177.512 55.432 177.08 55.6534 176.52 55.708L177.637 58.12H176.749L175.285 54.9667H175.422C176.201 54.956 176.701 54.888 176.91 54.7374C177.08 54.6227 177.217 54.464 177.313 54.268C177.41 54.0867 177.462 53.8694 177.462 53.6507C177.462 53.3107 177.356 53.0467 177.162 52.8654C176.97 52.6694 176.696 52.5814 176.334 52.5814C176.238 52.5814 176.126 52.5814 175.993 52.592C175.865 52.592 175.733 52.6014 175.577 52.612L174.66 58.12H173.868ZM168.134 55.3307C168.134 54.76 168.212 54.2507 168.373 53.768C168.528 53.3 168.749 52.9014 169.056 52.5574C169.34 52.2374 169.66 51.9947 170.028 51.828C170.392 51.656 170.785 51.576 171.217 51.576C171.974 51.576 172.58 51.8494 173.032 52.372C173.488 52.9094 173.706 53.6174 173.706 54.524C173.706 54.9427 173.662 55.3574 173.569 55.7427C173.47 56.12 173.337 56.4774 173.154 56.7814C172.881 57.2534 172.517 57.604 172.084 57.868C171.657 58.1307 171.186 58.2454 170.665 58.2454C169.894 58.2454 169.282 57.9814 168.818 57.4534C168.37 56.932 168.134 56.224 168.134 55.3307ZM168.952 55.2867C168.952 55.94 169.113 56.4507 169.425 56.828C169.738 57.2187 170.162 57.412 170.686 57.412C171.34 57.412 171.862 57.1507 172.28 56.6147C172.686 56.0734 172.9 55.3907 172.9 54.544C172.9 53.8934 172.741 53.3774 172.428 52.992C172.116 52.6014 171.692 52.4227 171.162 52.4227C170.525 52.4227 169.985 52.6827 169.577 53.2187C169.162 53.756 168.952 54.4534 168.952 55.2867ZM162.6 58.12L163.67 51.7014H164.761L166.298 56.8414L167.16 51.7014H167.952L166.9 58.12H165.848L164.274 52.82L163.397 58.12H162.6ZM154.277 55.3307C154.277 54.76 154.358 54.2507 154.512 53.768C154.67 53.3 154.897 52.9014 155.189 52.5574C155.474 52.2374 155.805 51.9947 156.17 51.828C156.529 51.656 156.928 51.576 157.356 51.576C158.121 51.576 158.725 51.8494 159.178 52.372C159.624 52.9094 159.856 53.6174 159.856 54.524C159.856 54.9427 159.805 55.3574 159.712 55.7427C159.616 56.12 159.485 56.4774 159.296 56.7814C159.02 57.2534 158.665 57.604 158.23 57.868C157.801 58.1307 157.324 58.2454 156.808 58.2454C156.034 58.2454 155.422 57.9814 154.962 57.4534C154.509 56.932 154.277 56.224 154.277 55.3307ZM155.086 55.2867C155.086 55.94 155.25 56.4507 155.564 56.828C155.876 57.2187 156.304 57.412 156.826 57.412C157.47 57.412 158.004 57.1507 158.416 56.6147C158.832 56.0734 159.037 55.3907 159.037 54.544C159.037 53.8934 158.881 53.3774 158.572 52.992C158.256 52.6014 157.832 52.4227 157.308 52.4227C156.652 52.4227 156.132 52.6827 155.712 53.2187C155.304 53.756 155.086 54.4534 155.086 55.2867ZM148.81 58.12L149.85 51.7014H151.296C152.094 51.7014 152.717 51.94 153.149 52.432C153.594 52.9227 153.808 53.6094 153.808 54.4894C153.808 55.584 153.525 56.464 152.954 57.1227C152.392 57.7894 151.634 58.12 150.694 58.12H148.81ZM151.296 52.5574H150.498L149.73 57.2534H150.694C151.386 57.2534 151.944 57.0134 152.365 56.5214C152.785 56.0294 152.998 55.3774 152.998 54.568C152.998 53.9147 152.85 53.4254 152.561 53.0734C152.266 52.7294 151.848 52.5574 151.296 52.5574ZM142.813 58.12L143.873 51.7014H146.696L146.54 52.6014H144.52L144.228 54.4267H146.236L146.097 55.3107H144.092L143.766 57.196H145.782L145.632 58.12H142.813ZM137.629 58.12L138.67 51.7014H140.108C140.913 51.7014 141.532 51.94 141.968 52.432C142.413 52.9227 142.621 53.6094 142.621 54.4894C142.621 55.584 142.342 56.464 141.774 57.1227C141.201 57.7894 140.446 58.12 139.509 58.12H137.629ZM140.108 52.5574H139.313L138.55 57.2534H139.509C140.194 57.2534 140.753 57.0134 141.176 56.5214C141.602 56.0294 141.81 55.3774 141.81 54.568C141.81 53.9147 141.668 53.4254 141.376 53.0734C141.084 52.7294 140.66 52.5574 140.108 52.5574ZM132.365 58.12L133.425 51.7014H134.528L136.074 56.8414L136.922 51.7014H137.72L136.662 58.12H135.613L134.037 52.82L133.157 58.12H132.365ZM130.824 55.3774L130.422 52.6827L129.204 55.3774H130.824ZM127.086 58.12L130.08 51.7014H130.996L132.102 58.12H131.274L130.968 56.2787H128.801L127.954 58.12H127.086ZM123.345 58.12L124.413 51.7014H125.793C126.43 51.7014 126.92 51.872 127.277 52.2014C127.626 52.536 127.801 53.0027 127.801 53.6094C127.801 54.188 127.638 54.6827 127.318 55.06C127.004 55.432 126.556 55.6534 126.004 55.708L127.116 58.12H126.23L124.772 54.9667H124.908C125.692 54.956 126.189 54.888 126.386 54.7374C126.561 54.6227 126.694 54.464 126.796 54.268C126.889 54.0867 126.944 53.8694 126.944 53.6507C126.944 53.3107 126.848 53.0467 126.646 52.8654C126.452 52.6694 126.181 52.5814 125.816 52.5814C125.722 52.5814 125.608 52.5814 125.48 52.592C125.348 52.592 125.209 52.6014 125.058 52.612L124.144 58.12H123.345ZM122.201 55.7787H119.712L119.85 54.9667H123.189C123.082 55.9614 122.756 56.76 122.212 57.3654C121.66 57.9614 120.977 58.2454 120.152 58.2454C119.365 58.2454 118.744 57.9814 118.285 57.4454C117.829 56.9094 117.605 56.1774 117.605 55.2534C117.605 54.7507 117.676 54.2814 117.829 53.836C117.97 53.3774 118.181 52.992 118.457 52.648C118.744 52.2947 119.072 52.0294 119.436 51.8627C119.805 51.6774 120.204 51.5867 120.644 51.5867C121.316 51.5867 121.856 51.7654 122.277 52.144C122.701 52.536 122.996 53.0814 123.146 53.8147H122.296C122.186 53.3574 121.98 53.0107 121.696 52.7734C121.416 52.536 121.066 52.4227 120.649 52.4227C120.014 52.4227 119.485 52.6827 119.064 53.2187C118.641 53.756 118.422 54.4267 118.422 55.2534C118.422 55.9067 118.589 56.4267 118.902 56.8147C119.225 57.2187 119.646 57.412 120.17 57.412C120.626 57.412 121.032 57.2627 121.405 56.964C121.78 56.6694 122.045 56.256 122.201 55.7787ZM108.801 55.3307C108.801 54.76 108.881 54.2507 109.034 53.768C109.189 53.3 109.417 52.9014 109.72 52.5574C110.006 52.2374 110.329 51.9947 110.692 51.828C111.053 51.656 111.454 51.576 111.889 51.576C112.637 51.576 113.241 51.8494 113.701 52.372C114.152 52.9094 114.376 53.6174 114.376 54.524C114.376 54.9427 114.326 55.3574 114.233 55.7427C114.138 56.12 113.998 56.4774 113.821 56.7814C113.542 57.2534 113.186 57.604 112.753 57.868C112.318 58.1307 111.842 58.2454 111.332 58.2454C110.558 58.2454 109.949 57.9814 109.488 57.4534C109.032 56.932 108.801 56.224 108.801 55.3307ZM109.621 55.2867C109.621 55.94 109.777 56.4507 110.089 56.828C110.416 57.2187 110.829 57.412 111.353 57.412C111.996 57.412 112.529 57.1507 112.941 56.6147C113.356 56.0734 113.569 55.3907 113.569 54.544C113.569 53.8934 113.41 53.3774 113.097 52.992C112.772 52.6014 112.358 52.4227 111.834 52.4227C111.189 52.4227 110.649 52.6827 110.241 53.2187C109.824 53.756 109.621 54.4534 109.621 55.2867ZM106.788 58.12L107.84 51.7014H108.637L107.584 58.12H106.788ZM102.272 58.12L103.329 51.7014H104.712C105.356 51.7014 105.848 51.872 106.201 52.2014C106.55 52.536 106.72 53.0027 106.72 53.6094C106.72 54.188 106.564 54.6827 106.241 55.06C105.922 55.432 105.482 55.6534 104.925 55.708L106.042 58.12H105.152L103.694 54.9667H103.832C104.61 54.956 105.102 54.888 105.318 54.7374C105.488 54.6227 105.618 54.464 105.714 54.268C105.816 54.0867 105.87 53.8694 105.87 53.6507C105.87 53.3107 105.769 53.0467 105.566 52.8654C105.37 52.6694 105.094 52.5814 104.746 52.5814C104.646 52.5814 104.532 52.5814 104.397 52.592C104.269 52.592 104.129 52.6014 103.985 52.612L103.077 58.12H102.272ZM94.3451 55.3307C94.3451 54.76 94.433 54.2507 94.577 53.768C94.741 53.3 94.9677 52.9014 95.2584 52.5574C95.5424 52.2374 95.8704 51.9947 96.2331 51.828C96.5944 51.656 96.9957 51.576 97.425 51.576C98.1837 51.576 98.7904 51.8494 99.241 52.372C99.689 52.9094 99.913 53.6174 99.913 54.524C99.913 54.9427 99.8757 55.3574 99.777 55.7427C99.6784 56.12 99.5397 56.4774 99.361 56.7814C99.0837 57.2534 98.733 57.604 98.293 57.868C97.861 58.1307 97.3917 58.2454 96.8677 58.2454C96.0944 58.2454 95.4877 57.9814 95.0277 57.4534C94.5744 56.932 94.3451 56.224 94.3451 55.3307ZM95.157 55.2867C95.157 55.94 95.3157 56.4507 95.629 56.828C95.941 57.2187 96.3677 57.412 96.8917 57.412C97.5424 57.412 98.069 57.1507 98.4824 56.6147C98.8944 56.0734 99.1024 55.3907 99.1024 54.544C99.1024 53.8934 98.9464 53.3774 98.6384 52.992C98.3264 52.6014 97.905 52.4227 97.373 52.4227C96.7277 52.4227 96.2011 52.6827 95.7797 53.2187C95.3677 53.756 95.157 54.4534 95.157 55.2867ZM88.873 58.12L89.9224 51.7014H91.3624C92.1571 51.7014 92.7797 51.94 93.2251 52.432C93.6571 52.9227 93.881 53.6094 93.881 54.4894C93.881 55.584 93.5944 56.464 93.0224 57.1227C92.4624 57.7894 91.701 58.12 90.7584 58.12H88.873ZM91.3624 52.5574H90.577L89.8037 57.2534H90.7584C91.4544 57.2534 92.0144 57.0134 92.4357 56.5214C92.853 56.0294 93.0717 55.3774 93.0717 54.568C93.0717 53.9147 92.917 53.4254 92.6264 53.0734C92.3344 52.7294 91.9104 52.5574 91.3624 52.5574Z" fill="#2E3192"/>
<path fill-rule="evenodd" clip-rule="evenodd" d="M122.449 17.172C122.61 15.7774 121.988 14.5787 120.589 13.5747C119.178 12.5654 117.618 12.064 115.916 12.064H106.605L105.37 22.6747H114.805C116.816 22.6747 118.558 22.1974 120.025 21.236C121.428 20.2774 122.244 18.9307 122.449 17.172ZM134.17 47.6214H134.037H119.249L119.646 35.0574C119.537 34.2334 119.258 33.4347 118.821 32.6934C118.337 32.0107 117.618 31.4014 116.673 30.8654C115.272 30.8654 112.941 30.82 109.686 30.7267C106.425 30.6387 104.686 30.6014 104.454 30.6014L102.474 47.6214H88.5371L93.6051 4.00938H122.474C126.402 4.00938 129.808 4.93871 132.692 6.76138C136.108 8.94671 137.6 11.892 137.168 15.6054C136.87 18.152 135.676 20.3574 133.582 22.232C131.686 23.92 129.269 25.1427 126.356 25.8854L126.298 26.4227C127.408 26.5387 128.512 26.8 129.6 27.2C132.998 28.456 133.744 30.5814 134.077 34.2L134.162 46.5627L139.097 4.00938H158.946L174.517 32.876L177.868 4.00938H190.9L185.826 47.6214H166.908L150.498 18.0854L147.064 47.6214H134.17ZM53.1438 28.3187C52.3651 34.988 50.2038 39.9 46.6491 43.0427C42.4078 46.8014 35.7251 48.6867 26.6051 48.6867C17.3558 48.6867 11.0291 46.9814 7.63177 43.5694C4.50111 40.4147 3.34511 35.3307 4.15978 28.3187L6.99044 4.00938H20.9198L18.0998 28.3187C17.6678 32.0747 18.2358 35.0374 19.8238 37.168C21.4051 39.2934 23.8038 40.368 26.9851 40.368C30.0451 40.368 32.6518 39.4587 34.7904 37.6147C37.2584 35.4907 38.7331 32.3827 39.2011 28.3187L42.0291 4.00938H55.9624L53.1438 28.3187Z" fill="#05A1E6"/>
</g>
</svg>
