<svg width="80" height="72" viewBox="0 0 80 72" fill="none" xmlns="http://www.w3.org/2000/svg">
<path fill-rule="evenodd" clip-rule="evenodd" d="M27.0397 35.821L2.14299 60.7177C-0.359512 63.2202 -0.295345 67.3269 2.14299 69.8294C4.64549 72.3319 8.68799 72.3319 11.1905 69.8294L40.643 40.3769C43.1455 37.8744 43.1455 33.8319 40.643 31.3294L11.1905 1.87688C8.68799 -0.625625 4.64549 -0.625625 2.14299 1.87688C-0.359512 4.37938 -0.359512 8.42188 2.14299 10.9244L27.0397 35.821ZM64.0396 35.821L39.143 60.7177C36.6405 63.2202 36.7047 67.3269 39.143 69.8294C41.6455 72.3319 45.688 72.3319 48.1905 69.8294L77.643 40.3769C80.1455 37.8744 80.1455 33.8319 77.643 31.3294L48.1905 1.87688C45.688 -0.625625 41.6455 -0.625625 39.143 1.87688C36.6405 4.37938 36.6405 8.42188 39.143 10.9244L64.0396 35.821Z" fill="#2B80B0"/>
</svg>
